<svg xmlns="http://www.w3.org/2000/svg" xmlns:xlink="http://www.w3.org/1999/xlink" width="1500" zoomAndPan="magnify" viewBox="0 0 1125 449.999984" height="600" preserveAspectRatio="xMidYMid meet" version="1.0"><defs><g/><clipPath id="93c874e2cd"><path d="M 876 212 L 985 212 L 985 240 L 876 240 Z M 876 212 " clip-rule="nonzero"/></clipPath><clipPath id="3fb750c850"><path d="M 953.980469 358.394531 L 587.898438 261.4375 L 657.652344 -1.929688 L 1023.734375 95.027344 Z M 953.980469 358.394531 " clip-rule="nonzero"/></clipPath><clipPath id="ec9ae4757b"><path d="M 953.980469 358.394531 L 587.898438 261.4375 L 657.652344 -1.929688 L 1023.734375 95.027344 Z M 953.980469 358.394531 " clip-rule="nonzero"/></clipPath><clipPath id="cb734c5a98"><path d="M 835 86 L 910 86 L 910 169 L 835 169 Z M 835 86 " clip-rule="nonzero"/></clipPath><clipPath id="5cec7fdcdd"><path d="M 953.980469 358.394531 L 587.898438 261.4375 L 657.652344 -1.929688 L 1023.734375 95.027344 Z M 953.980469 358.394531 " clip-rule="nonzero"/></clipPath><clipPath id="623c2def08"><path d="M 953.980469 358.394531 L 587.898438 261.4375 L 657.652344 -1.929688 L 1023.734375 95.027344 Z M 953.980469 358.394531 " clip-rule="nonzero"/></clipPath><clipPath id="634f48e17a"><path d="M 759 31 L 780 31 L 780 135 L 759 135 Z M 759 31 " clip-rule="nonzero"/></clipPath><clipPath id="b3d179e2c3"><path d="M 953.980469 358.394531 L 587.898438 261.4375 L 657.652344 -1.929688 L 1023.734375 95.027344 Z M 953.980469 358.394531 " clip-rule="nonzero"/></clipPath><clipPath id="9d58d777d2"><path d="M 953.980469 358.394531 L 587.898438 261.4375 L 657.652344 -1.929688 L 1023.734375 95.027344 Z M 953.980469 358.394531 " clip-rule="nonzero"/></clipPath><clipPath id="d831a006a4"><path d="M 640 71 L 676 71 L 676 134 L 640 134 Z M 640 71 " clip-rule="nonzero"/></clipPath><clipPath id="ef8f902373"><path d="M 953.980469 358.394531 L 587.898438 261.4375 L 657.652344 -1.929688 L 1023.734375 95.027344 Z M 953.980469 358.394531 " clip-rule="nonzero"/></clipPath><clipPath id="969b2c5f33"><path d="M 953.980469 358.394531 L 587.898438 261.4375 L 657.652344 -1.929688 L 1023.734375 95.027344 Z M 953.980469 358.394531 " clip-rule="nonzero"/></clipPath><clipPath id="700dd1269f"><path d="M 882 315 L 926 315 L 926 349 L 882 349 Z M 882 315 " clip-rule="nonzero"/></clipPath><clipPath id="e480845aef"><path d="M 953.980469 358.394531 L 587.898438 261.4375 L 657.652344 -1.929688 L 1023.734375 95.027344 Z M 953.980469 358.394531 " clip-rule="nonzero"/></clipPath><clipPath id="b915151489"><path d="M 953.980469 358.394531 L 587.898438 261.4375 L 657.652344 -1.929688 L 1023.734375 95.027344 Z M 953.980469 358.394531 " clip-rule="nonzero"/></clipPath><clipPath id="cf0d00f011"><path d="M 0.441406 158 L 654 158 L 654 448 L 0.441406 448 Z M 0.441406 158 " clip-rule="nonzero"/></clipPath><clipPath id="54b3638797"><rect x="0" width="654" y="0" height="290"/></clipPath><clipPath id="e4f6647082"><rect x="0" width="203" y="0" height="276"/></clipPath><clipPath id="02187f71ca"><rect x="0" width="1019" y="0" height="448"/></clipPath></defs><rect x="-112.5" width="1350" fill="#ffffff" y="-44.999998" height="539.99998" fill-opacity="1"/><rect x="-112.5" width="1350" fill="#c4622d" y="-44.999998" height="539.99998" fill-opacity="1"/><g transform="matrix(1, 0, 0, 1, 79, 2)"><g clip-path="url(#02187f71ca)"><g clip-path="url(#93c874e2cd)"><g clip-path="url(#3fb750c850)"><g clip-path="url(#ec9ae4757b)"><path fill="#d4a853" d="M 879.722656 238.359375 C 895.3125 241.984375 913.621094 237.882812 929.328125 235.964844 C 946.105469 233.820312 962.695312 231.121094 979.175781 227.550781 C 989.183594 225.472656 984.835938 210.644531 974.914062 212.40625 C 958.957031 215.273438 943.117188 218.339844 927.125 220.6875 C 912.007812 222.933594 893.953125 222.878906 879.738281 228.738281 C 875.554688 230.503906 874.472656 237.140625 879.722656 238.359375 Z M 879.722656 238.359375 " fill-opacity="1" fill-rule="nonzero"/></g></g></g><g clip-path="url(#cb734c5a98)"><g clip-path="url(#5cec7fdcdd)"><g clip-path="url(#623c2def08)"><path fill="#d4a853" d="M 844.238281 167.664062 C 855.78125 157.886719 866.011719 145.398438 876.222656 134.257812 C 886.519531 122.796875 896.972656 111.382812 907.152344 99.726562 C 913.710938 92.175781 902.820312 81.015625 896.101562 88.523438 C 885.480469 100.570312 875.335938 112.742188 864.988281 125.03125 C 855.164062 136.617188 844.269531 148.421875 836.132812 161.296875 C 832.535156 166.589844 839.914062 171.246094 844.238281 167.664062 Z M 844.238281 167.664062 " fill-opacity="1" fill-rule="nonzero"/></g></g></g><g clip-path="url(#634f48e17a)"><g clip-path="url(#b3d179e2c3)"><g clip-path="url(#9d58d777d2)"><path fill="#d4a853" d="M 767.167969 132.222656 C 769.402344 116.773438 771.753906 101.519531 773.671875 85.988281 C 775.714844 69.980469 778.675781 53.707031 779.058594 37.597656 C 779.234375 30.550781 767.855469 28.890625 766.644531 36 C 764.054688 51.523438 763.597656 67.277344 762.667969 82.902344 C 761.609375 99.003906 760.714844 115.148438 759.972656 131.332031 C 759.757812 135.328125 766.59375 136.292969 767.167969 132.222656 Z M 767.167969 132.222656 " fill-opacity="1" fill-rule="nonzero"/></g></g></g><g clip-path="url(#d831a006a4)"><g clip-path="url(#ef8f902373)"><g clip-path="url(#969b2c5f33)"><path fill="#d4a853" d="M 675.164062 128.289062 C 668.6875 110.023438 660.78125 92.054688 652.035156 74.710938 C 648.414062 67.335938 637.753906 73.800781 641.054688 81.089844 C 649.011719 98.226562 657.84375 115.257812 667.953125 131.277344 C 670.199219 134.910156 676.683594 132.746094 675.164062 128.289062 Z M 675.164062 128.289062 " fill-opacity="1" fill-rule="nonzero"/></g></g></g><g clip-path="url(#700dd1269f)"><g clip-path="url(#e480845aef)"><g clip-path="url(#b915151489)"><path fill="#d4a853" d="M 883.03125 322.152344 C 886.910156 327.90625 893.191406 331.597656 898.71875 335.59375 C 904.835938 339.917969 910.742188 345.027344 917.792969 347.738281 C 924.097656 350.082031 927.742188 341.421875 923.957031 337.210938 C 919.238281 332.078125 912.515625 328.777344 906.546875 325.171875 C 900.734375 321.605469 894.902344 316.851562 888.148438 315.570312 C 884.519531 314.609375 880.742188 318.675781 883.03125 322.152344 Z M 883.03125 322.152344 " fill-opacity="1" fill-rule="nonzero"/></g></g></g><g clip-path="url(#cf0d00f011)"><g transform="matrix(1, 0, 0, 1, -0.000000000000014211, 158)"><g clip-path="url(#54b3638797)"><g fill="#faf4ec" fill-opacity="1"><g transform="translate(1.158805, 222.608763)"><g><path d="M 24.1875 -77.8125 C 24.1875 -72.226562 26.019531 -67.800781 29.6875 -64.53125 C 33.363281 -61.257812 38.710938 -57.785156 45.734375 -54.109375 C 51.316406 -51.234375 55.664062 -48.757812 58.78125 -46.6875 C 61.894531 -44.613281 64.566406 -41.898438 66.796875 -38.546875 C 69.035156 -35.191406 70.15625 -31.125 70.15625 -26.34375 C 70.15625 -18.195312 67.117188 -11.328125 61.046875 -5.734375 C 54.984375 -0.148438 46.765625 2.640625 36.390625 2.640625 C 27.929688 2.640625 20.269531 0.242188 13.40625 -4.546875 C 12.445312 -5.179688 11.96875 -6.140625 11.96875 -7.421875 L 11.5 -26.09375 C 11.5 -26.570312 11.9375 -26.851562 12.8125 -26.9375 C 13.6875 -27.019531 14.203125 -26.820312 14.359375 -26.34375 C 17.398438 -18.351562 21.351562 -12.285156 26.21875 -8.140625 C 31.082031 -3.992188 36.707031 -1.921875 43.09375 -1.921875 C 48.363281 -1.921875 52.351562 -3.195312 55.0625 -5.75 C 57.78125 -8.300781 58.976562 -12.050781 58.65625 -17 C 58.5 -23.0625 56.625 -27.726562 53.03125 -31 C 49.4375 -34.28125 44.050781 -37.675781 36.875 -41.1875 C 31.601562 -43.738281 27.410156 -46.050781 24.296875 -48.125 C 21.191406 -50.195312 18.5625 -52.910156 16.40625 -56.265625 C 14.25 -59.617188 13.171875 -63.769531 13.171875 -68.71875 C 13.171875 -77.332031 16.398438 -83.914062 22.859375 -88.46875 C 29.328125 -93.019531 36.953125 -95.296875 45.734375 -95.296875 C 52.117188 -95.296875 57.945312 -94.097656 63.21875 -91.703125 C 64.164062 -91.378906 64.757812 -91.019531 65 -90.625 C 65.238281 -90.226562 65.359375 -89.710938 65.359375 -89.078125 C 65.359375 -85.878906 65.28125 -83.398438 65.125 -81.640625 L 64.890625 -71.59375 C 64.890625 -71.269531 64.410156 -71.109375 63.453125 -71.109375 C 62.492188 -71.109375 62.015625 -71.269531 62.015625 -71.59375 C 62.015625 -74.945312 60.738281 -78.097656 58.1875 -81.046875 C 55.632812 -84.003906 52.441406 -86.359375 48.609375 -88.109375 C 44.773438 -89.867188 40.941406 -90.75 37.109375 -90.75 C 33.117188 -90.75 29.96875 -89.671875 27.65625 -87.515625 C 25.34375 -85.359375 24.1875 -82.125 24.1875 -77.8125 Z M 24.1875 -77.8125 "/></g></g></g><g fill="#faf4ec" fill-opacity="1"><g transform="translate(82.085857, 222.608763)"><g><path d="M 99.359375 -12.921875 C 100.003906 -12.921875 100.40625 -12.5625 100.5625 -11.84375 C 100.71875 -11.132812 100.476562 -10.617188 99.84375 -10.296875 L 75.1875 1.4375 C 74.539062 1.757812 73.898438 1.921875 73.265625 1.921875 C 71.191406 1.921875 69.351562 0.523438 67.75 -2.265625 C 66.15625 -5.066406 65.117188 -8.859375 64.640625 -13.640625 L 52.203125 -5.5 C 48.210938 -2.945312 44.695312 -1.113281 41.65625 0 C 38.625 1.113281 35.429688 1.671875 32.078125 1.671875 C 26.171875 1.671875 21.582031 0.117188 18.3125 -2.984375 C 15.039062 -6.097656 13.40625 -10.050781 13.40625 -14.84375 C 13.40625 -19.632812 15.320312 -23.785156 19.15625 -27.296875 C 22.988281 -30.804688 29.296875 -34.160156 38.078125 -37.359375 L 64.40625 -47.171875 L 64.40625 -63.453125 C 64.40625 -81.328125 59.378906 -90.265625 49.328125 -90.265625 C 43.898438 -90.265625 39.785156 -88.46875 36.984375 -84.875 C 34.191406 -81.289062 32.316406 -77.179688 31.359375 -72.546875 C 30.878906 -69.671875 30 -67.316406 28.71875 -65.484375 C 27.445312 -63.648438 25.296875 -62.734375 22.265625 -62.734375 C 19.710938 -62.734375 17.753906 -63.453125 16.390625 -64.890625 C 15.035156 -66.328125 14.359375 -68.003906 14.359375 -69.921875 C 14.359375 -73.742188 16.832031 -77.570312 21.78125 -81.40625 C 26.738281 -85.238281 32.644531 -88.429688 39.5 -90.984375 C 46.363281 -93.535156 52.507812 -94.8125 57.9375 -94.8125 C 64.488281 -94.8125 69.4375 -92.734375 72.78125 -88.578125 C 76.132812 -84.429688 77.8125 -78.453125 77.8125 -70.640625 L 77.8125 -25.859375 C 77.8125 -20.273438 78.53125 -16.203125 79.96875 -13.640625 C 81.40625 -11.085938 83.800781 -9.8125 87.15625 -9.8125 C 90.1875 -9.8125 94.097656 -10.847656 98.890625 -12.921875 Z M 64.40625 -17 L 64.40625 -43.8125 L 42.140625 -35.203125 C 37.671875 -33.441406 34.4375 -31.40625 32.4375 -29.09375 C 30.445312 -26.78125 29.453125 -24.023438 29.453125 -20.828125 C 29.453125 -16.992188 30.6875 -13.757812 33.15625 -11.125 C 35.632812 -8.5 38.867188 -7.1875 42.859375 -7.1875 C 46.046875 -7.1875 49.878906 -8.460938 54.359375 -11.015625 Z M 64.40625 -17 "/></g></g></g><g fill="#faf4ec" fill-opacity="1"><g transform="translate(182.406665, 222.608763)"><g><path d="M 118.515625 -2.875 C 118.992188 -2.875 119.234375 -2.394531 119.234375 -1.4375 C 119.234375 -0.476562 118.992188 0 118.515625 0 C 114.847656 0 111.976562 -0.078125 109.90625 -0.234375 L 96.96875 -0.484375 L 83.796875 -0.234375 C 81.722656 -0.078125 78.851562 0 75.1875 0 C 74.707031 0 74.46875 -0.476562 74.46875 -1.4375 C 74.46875 -2.394531 74.707031 -2.875 75.1875 -2.875 C 79.488281 -2.875 82.675781 -3.3125 84.75 -4.1875 C 86.832031 -5.0625 88.234375 -6.617188 88.953125 -8.859375 C 89.671875 -11.097656 90.03125 -14.609375 90.03125 -19.390625 L 90.03125 -58.1875 C 90.03125 -67.601562 88.234375 -74.546875 84.640625 -79.015625 C 81.046875 -83.484375 75.5 -85.71875 68 -85.71875 C 63.050781 -85.71875 58.0625 -84.398438 53.03125 -81.765625 C 48.007812 -79.128906 43.421875 -75.5 39.265625 -70.875 L 39.265625 -19.390625 C 39.265625 -14.609375 39.625 -11.097656 40.34375 -8.859375 C 41.0625 -6.617188 42.457031 -5.0625 44.53125 -4.1875 C 46.601562 -3.3125 49.796875 -2.875 54.109375 -2.875 C 54.585938 -2.875 54.828125 -2.394531 54.828125 -1.4375 C 54.828125 -0.476562 54.585938 0 54.109375 0 C 50.441406 0 47.570312 -0.078125 45.5 -0.234375 L 32.5625 -0.484375 L 19.390625 -0.234375 C 17.316406 -0.078125 14.445312 0 10.78125 0 C 10.300781 0 10.0625 -0.476562 10.0625 -1.4375 C 10.0625 -2.394531 10.300781 -2.875 10.78125 -2.875 C 15.082031 -2.875 18.269531 -3.3125 20.34375 -4.1875 C 22.425781 -5.0625 23.828125 -6.617188 24.546875 -8.859375 C 25.265625 -11.097656 25.625 -14.609375 25.625 -19.390625 L 25.625 -66.796875 C 25.625 -72.222656 24.984375 -76.132812 23.703125 -78.53125 C 22.421875 -80.925781 20.265625 -82.125 17.234375 -82.125 C 14.679688 -82.125 10.375 -80.925781 4.3125 -78.53125 L 3.828125 -78.53125 C 3.191406 -78.53125 2.753906 -78.890625 2.515625 -79.609375 C 2.273438 -80.328125 2.472656 -80.847656 3.109375 -81.171875 L 30.890625 -94.34375 L 32.328125 -94.578125 C 33.765625 -94.578125 35.28125 -92.738281 36.875 -89.0625 C 38.46875 -85.394531 39.265625 -80.6875 39.265625 -74.9375 C 45.328125 -81.96875 51.351562 -87.15625 57.34375 -90.5 C 63.332031 -93.851562 69.519531 -95.53125 75.90625 -95.53125 C 84.84375 -95.53125 91.703125 -93.054688 96.484375 -88.109375 C 101.273438 -83.160156 103.671875 -75.898438 103.671875 -66.328125 L 103.671875 -19.390625 C 103.671875 -14.609375 104.03125 -11.097656 104.75 -8.859375 C 105.46875 -6.617188 106.863281 -5.0625 108.9375 -4.1875 C 111.019531 -3.3125 114.210938 -2.875 118.515625 -2.875 Z M 118.515625 -2.875 "/></g></g></g><g fill="#faf4ec" fill-opacity="1"><g transform="translate(306.191534, 222.608763)"><g><path d="M 55.3125 3.109375 C 46.050781 3.109375 37.867188 0.835938 30.765625 -3.703125 C 23.660156 -8.253906 18.191406 -14.398438 14.359375 -22.140625 C 10.535156 -29.890625 8.625 -38.3125 8.625 -47.40625 C 8.625 -57.78125 11.132812 -66.597656 16.15625 -73.859375 C 21.1875 -81.128906 27.648438 -86.554688 35.546875 -90.140625 C 43.453125 -93.734375 51.476562 -95.53125 59.625 -95.53125 C 69.039062 -95.53125 77.257812 -93.210938 84.28125 -88.578125 C 91.300781 -83.953125 96.6875 -77.847656 100.4375 -70.265625 C 104.195312 -62.691406 106.078125 -54.675781 106.078125 -46.21875 C 106.078125 -36.3125 103.757812 -27.644531 99.125 -20.21875 C 94.5 -12.800781 88.3125 -7.054688 80.5625 -2.984375 C 72.820312 1.078125 64.40625 3.109375 55.3125 3.109375 Z M 62.25 -1.4375 C 71.03125 -1.4375 77.816406 -4.546875 82.609375 -10.765625 C 87.398438 -16.992188 89.796875 -26.570312 89.796875 -39.5 C 89.796875 -49.40625 88.15625 -58.265625 84.875 -66.078125 C 81.601562 -73.898438 77.09375 -80.003906 71.34375 -84.390625 C 65.601562 -88.785156 59.0625 -90.984375 51.71875 -90.984375 C 43.09375 -90.984375 36.425781 -87.867188 31.71875 -81.640625 C 27.007812 -75.421875 24.65625 -66.484375 24.65625 -54.828125 C 24.65625 -45.085938 26.25 -36.144531 29.4375 -28 C 32.632812 -19.863281 37.109375 -13.398438 42.859375 -8.609375 C 48.609375 -3.828125 55.070312 -1.4375 62.25 -1.4375 Z M 62.25 -1.4375 "/></g></g></g><g fill="#faf4ec" fill-opacity="1"><g transform="translate(420.878089, 222.608763)"><g><path d="M 55.3125 3.109375 C 46.050781 3.109375 37.867188 0.835938 30.765625 -3.703125 C 23.660156 -8.253906 18.191406 -14.398438 14.359375 -22.140625 C 10.535156 -29.890625 8.625 -38.3125 8.625 -47.40625 C 8.625 -57.78125 11.132812 -66.597656 16.15625 -73.859375 C 21.1875 -81.128906 27.648438 -86.554688 35.546875 -90.140625 C 43.453125 -93.734375 51.476562 -95.53125 59.625 -95.53125 C 69.039062 -95.53125 77.257812 -93.210938 84.28125 -88.578125 C 91.300781 -83.953125 96.6875 -77.847656 100.4375 -70.265625 C 104.195312 -62.691406 106.078125 -54.675781 106.078125 -46.21875 C 106.078125 -36.3125 103.757812 -27.644531 99.125 -20.21875 C 94.5 -12.800781 88.3125 -7.054688 80.5625 -2.984375 C 72.820312 1.078125 64.40625 3.109375 55.3125 3.109375 Z M 62.25 -1.4375 C 71.03125 -1.4375 77.816406 -4.546875 82.609375 -10.765625 C 87.398438 -16.992188 89.796875 -26.570312 89.796875 -39.5 C 89.796875 -49.40625 88.15625 -58.265625 84.875 -66.078125 C 81.601562 -73.898438 77.09375 -80.003906 71.34375 -84.390625 C 65.601562 -88.785156 59.0625 -90.984375 51.71875 -90.984375 C 43.09375 -90.984375 36.425781 -87.867188 31.71875 -81.640625 C 27.007812 -75.421875 24.65625 -66.484375 24.65625 -54.828125 C 24.65625 -45.085938 26.25 -36.144531 29.4375 -28 C 32.632812 -19.863281 37.109375 -13.398438 42.859375 -8.609375 C 48.609375 -3.828125 55.070312 -1.4375 62.25 -1.4375 Z M 62.25 -1.4375 "/></g></g></g><g fill="#faf4ec" fill-opacity="1"><g transform="translate(535.564644, 222.608763)"><g><path d="M 115.640625 -2.875 C 116.117188 -2.875 116.359375 -2.394531 116.359375 -1.4375 C 116.359375 -0.476562 116.117188 0 115.640625 0 C 111.972656 0 109.023438 -0.078125 106.796875 -0.234375 L 93.859375 -0.484375 L 76.625 -0.234375 C 74.0625 -0.078125 70.628906 0 66.328125 0 C 66.003906 0 65.84375 -0.476562 65.84375 -1.4375 C 65.84375 -2.394531 66.003906 -2.875 66.328125 -2.875 C 74.304688 -2.875 78.296875 -4.390625 78.296875 -7.421875 C 78.296875 -8.859375 77.578125 -10.613281 76.140625 -12.6875 L 46.6875 -52.671875 L 34.71875 -43.34375 L 34.71875 -19.390625 C 34.71875 -14.765625 35.113281 -11.289062 35.90625 -8.96875 C 36.707031 -6.65625 38.144531 -5.0625 40.21875 -4.1875 C 42.300781 -3.3125 45.492188 -2.875 49.796875 -2.875 C 50.273438 -2.875 50.515625 -2.394531 50.515625 -1.4375 C 50.515625 -0.476562 50.273438 0 49.796875 0 C 46.128906 0 43.175781 -0.078125 40.9375 -0.234375 L 28.015625 -0.484375 L 15.078125 -0.234375 C 12.847656 -0.078125 9.894531 0 6.21875 0 C 5.738281 0 5.5 -0.476562 5.5 -1.4375 C 5.5 -2.394531 5.738281 -2.875 6.21875 -2.875 C 10.53125 -2.875 13.722656 -3.3125 15.796875 -4.1875 C 17.878906 -5.0625 19.316406 -6.65625 20.109375 -8.96875 C 20.910156 -11.289062 21.3125 -14.765625 21.3125 -19.390625 L 21.3125 -143.1875 C 21.3125 -148.925781 20.75 -153.070312 19.625 -155.625 C 18.507812 -158.1875 16.515625 -159.46875 13.640625 -159.46875 C 11.253906 -159.46875 7.585938 -158.347656 2.640625 -156.109375 L 2.15625 -156.109375 C 1.675781 -156.109375 1.273438 -156.503906 0.953125 -157.296875 C 0.640625 -158.097656 0.800781 -158.582031 1.4375 -158.75 L 31.359375 -173.359375 L 32.5625 -173.59375 C 33.039062 -173.59375 33.519531 -173.390625 34 -172.984375 C 34.476562 -172.585938 34.71875 -172.148438 34.71875 -171.671875 L 34.71875 -47.171875 L 66.796875 -73.03125 C 71.910156 -77.019531 74.46875 -80.53125 74.46875 -83.5625 C 74.46875 -87.550781 69.914062 -89.546875 60.8125 -89.546875 C 60.332031 -89.546875 60.09375 -90.023438 60.09375 -90.984375 C 60.09375 -91.941406 60.332031 -92.421875 60.8125 -92.421875 C 65.125 -92.421875 68.398438 -92.34375 70.640625 -92.1875 L 88.109375 -91.9375 L 104.15625 -92.1875 C 106.226562 -92.34375 109.101562 -92.421875 112.78125 -92.421875 C 113.257812 -92.421875 113.5 -91.941406 113.5 -90.984375 C 113.5 -90.023438 113.257812 -89.546875 112.78125 -89.546875 C 106.875 -89.546875 100.328125 -88.109375 93.140625 -85.234375 C 85.953125 -82.367188 78.769531 -78.0625 71.59375 -72.3125 L 57.703125 -61.296875 L 88.109375 -19.390625 C 96.085938 -8.378906 105.265625 -2.875 115.640625 -2.875 Z M 115.640625 -2.875 "/></g></g></g></g></g></g><g transform="matrix(1, 0, 0, 1, 644, 67)"><g clip-path="url(#e4f6647082)"><g fill="#7b3911" fill-opacity="1"><g transform="translate(0.697933, 210.263767)"><g><path d="M 20.171875 -44.40625 C 41.316406 -44.101562 56.835938 -40.210938 66.734375 -32.734375 C 76.628906 -25.265625 81.578125 -15.035156 81.578125 -2.046875 C 81.578125 6.566406 79.3125 14.382812 74.78125 21.40625 C 70.25 28.4375 63.1875 35.234375 53.59375 41.796875 C 44 48.367188 31.269531 55.207031 15.40625 62.3125 L 15.1875 62.3125 C 14.582031 62.3125 14.085938 61.972656 13.703125 61.296875 C 13.328125 60.617188 13.441406 60.128906 14.046875 59.828125 C 30.359375 50.609375 41.800781 41.316406 48.375 31.953125 C 54.945312 22.585938 58.234375 12.539062 58.234375 1.8125 C 58.234375 -10.726562 54.53125 -20.472656 47.125 -27.421875 C 39.726562 -34.367188 29.15625 -37.84375 15.40625 -37.84375 C 14.65625 -37.84375 14.050781 -38.101562 13.59375 -38.625 C 13.144531 -39.15625 12.992188 -39.800781 13.140625 -40.5625 L 20.390625 -80.890625 C 20.546875 -81.953125 20.773438 -82.59375 21.078125 -82.8125 C 21.378906 -83.039062 22.132812 -83.234375 23.34375 -83.390625 C 42.375 -85.648438 55.132812 -87.234375 61.625 -88.140625 C 68.125 -89.046875 72.316406 -89.988281 74.203125 -90.96875 C 76.097656 -91.957031 77.421875 -93.582031 78.171875 -95.84375 C 78.328125 -96.300781 78.816406 -96.488281 79.640625 -96.40625 C 80.472656 -96.332031 80.816406 -95.992188 80.671875 -95.390625 L 76.140625 -70.25 C 75.679688 -68.582031 75 -67.484375 74.09375 -66.953125 C 73.1875 -66.429688 71.753906 -66.171875 69.796875 -66.171875 L 26.734375 -65.265625 C 24.773438 -65.265625 23.644531 -64.207031 23.34375 -62.09375 Z M 20.171875 -44.40625 "/></g></g></g><g fill="#7b3911" fill-opacity="1"><g transform="translate(93.370532, 210.263767)"><g><path d="M 54.375 2.953125 C 45.007812 2.953125 36.664062 0.910156 29.34375 -3.171875 C 22.019531 -7.253906 16.28125 -12.878906 12.125 -20.046875 C 7.96875 -27.222656 5.890625 -35.269531 5.890625 -44.1875 C 5.890625 -53.101562 7.96875 -61.070312 12.125 -68.09375 C 16.28125 -75.113281 22.019531 -80.585938 29.34375 -84.515625 C 36.664062 -88.441406 45.007812 -90.40625 54.375 -90.40625 C 63.75 -90.40625 72.0625 -88.40625 79.3125 -84.40625 C 86.5625 -80.40625 92.1875 -74.851562 96.1875 -67.75 C 100.1875 -60.65625 102.1875 -52.648438 102.1875 -43.734375 C 102.1875 -34.816406 100.144531 -26.804688 96.0625 -19.703125 C 91.988281 -12.609375 86.328125 -7.054688 79.078125 -3.046875 C 71.828125 0.953125 63.59375 2.953125 54.375 2.953125 Z M 56.640625 -1.8125 C 63.597656 -1.8125 68.847656 -5.207031 72.390625 -12 C 75.941406 -18.800781 77.71875 -28.320312 77.71875 -40.5625 C 77.71875 -55.820312 75.335938 -67.148438 70.578125 -74.546875 C 65.828125 -81.953125 59.820312 -85.65625 52.5625 -85.65625 C 45.46875 -85.65625 39.957031 -82.140625 36.03125 -75.109375 C 32.101562 -68.085938 30.140625 -58.609375 30.140625 -46.671875 C 30.140625 -33.234375 32.554688 -22.394531 37.390625 -14.15625 C 42.222656 -5.925781 48.640625 -1.8125 56.640625 -1.8125 Z M 56.640625 -1.8125 "/></g></g></g></g></g></g></g></svg>